<svg aria-hidden="true" style="position: absolute; width: 0; height: 0; overflow: hidden;" version="1.1" xmlns="http://www.w3.org/2000/svg" xmlns:xlink="http://www.w3.org/1999/xlink">
<defs>
<symbol id="icon-lightbulb" viewBox="0 0 24 24">
<path d="M12 2.016q2.906 0 4.945 2.039t2.039 4.945q0 3.516-3 5.719v2.297q0 0.422-0.281 0.703t-0.703 0.281h-6q-0.422 0-0.703-0.281t-0.281-0.703v-2.297q-3-2.063-3-5.719 0-2.906 2.039-4.945t4.945-2.039zM9 21v-0.984h6v0.984q0 0.422-0.281 0.703t-0.703 0.281h-4.031q-0.422 0-0.703-0.281t-0.281-0.703z"></path>
</symbol>
<symbol id="icon-mail-envelope-closed" viewBox="0 0 32 32">
<path d="M7.077 10.923l0.808-0.808 8.615 7.385 8.615-7.385 0.808 0.808-9.423 8.077-9.423-8.077zM6.004 8c-1.107 0-2.004 0.895-2.004 1.994v12.012c0 1.101 0.89 1.994 2.004 1.994h20.993c1.107 0 2.004-0.895 2.004-1.994v-12.012c0-1.101-0.89-1.994-2.004-1.994h-20.993z"></path>
</symbol>
<symbol id="icon-lock" viewBox="0 0 18 28">
<path d="M5 12h8v-3c0-2.203-1.797-4-4-4s-4 1.797-4 4v3zM18 13.5v9c0 0.828-0.672 1.5-1.5 1.5h-15c-0.828 0-1.5-0.672-1.5-1.5v-9c0-0.828 0.672-1.5 1.5-1.5h0.5v-3c0-3.844 3.156-7 7-7s7 3.156 7 7v3h0.5c0.828 0 1.5 0.672 1.5 1.5z"></path>
</symbol>
<symbol id="icon-user" viewBox="0 0 20 28">
<path d="M20 21.859c0 2.281-1.5 4.141-3.328 4.141h-13.344c-1.828 0-3.328-1.859-3.328-4.141 0-4.109 1.016-8.859 5.109-8.859 1.266 1.234 2.984 2 4.891 2s3.625-0.766 4.891-2c4.094 0 5.109 4.75 5.109 8.859zM16 8c0 3.313-2.688 6-6 6s-6-2.688-6-6 2.688-6 6-6 6 2.688 6 6z"></path>
</symbol>
<symbol id="icon-exclamation-triangle" viewBox="0 0 28 28">
<path d="M16 21.484v-2.969c0-0.281-0.219-0.516-0.5-0.516h-3c-0.281 0-0.5 0.234-0.5 0.516v2.969c0 0.281 0.219 0.516 0.5 0.516h3c0.281 0 0.5-0.234 0.5-0.516zM15.969 15.641l0.281-7.172c0-0.094-0.047-0.219-0.156-0.297-0.094-0.078-0.234-0.172-0.375-0.172h-3.437c-0.141 0-0.281 0.094-0.375 0.172-0.109 0.078-0.156 0.234-0.156 0.328l0.266 7.141c0 0.203 0.234 0.359 0.531 0.359h2.891c0.281 0 0.516-0.156 0.531-0.359zM15.75 1.047l12 22c0.344 0.609 0.328 1.359-0.031 1.969s-1.016 0.984-1.719 0.984h-24c-0.703 0-1.359-0.375-1.719-0.984s-0.375-1.359-0.031-1.969l12-22c0.344-0.641 1.016-1.047 1.75-1.047s1.406 0.406 1.75 1.047z"></path>
</symbol>
<symbol id="icon-sign-in" viewBox="0 0 24 28">
<path d="M18.5 14c0 0.266-0.109 0.516-0.297 0.703l-8.5 8.5c-0.187 0.187-0.438 0.297-0.703 0.297-0.547 0-1-0.453-1-1v-4.5h-7c-0.547 0-1-0.453-1-1v-6c0-0.547 0.453-1 1-1h7v-4.5c0-0.547 0.453-1 1-1 0.266 0 0.516 0.109 0.703 0.297l8.5 8.5c0.187 0.187 0.297 0.438 0.297 0.703zM24 8.5v11c0 2.484-2.016 4.5-4.5 4.5h-5c-0.266 0-0.5-0.234-0.5-0.5 0-0.438-0.203-1.5 0.5-1.5h5c1.375 0 2.5-1.125 2.5-2.5v-11c0-1.375-1.125-2.5-2.5-2.5h-4.5c-0.391 0-1 0.078-1-0.5 0-0.438-0.203-1.5 0.5-1.5h5c2.484 0 4.5 2.016 4.5 4.5z"></path>
</symbol>
</defs>
</svg>
